<svg width="104" height="38" viewBox="0 0 104 38" fill="none" xmlns="http://www.w3.org/2000/svg">
<path d="M0.818 37V4.8H15.446C18.942 4.8 22.024 5.47466 24.692 6.824C27.36 8.14267 29.4453 9.998 30.948 12.39C32.4507 14.782 33.202 17.6187 33.202 20.9C33.202 24.1507 32.4507 26.9873 30.948 29.41C29.4453 31.802 27.36 33.6727 24.692 35.022C22.024 36.3407 18.942 37 15.446 37H0.818ZM8.27 30.882H15.078C17.2247 30.882 19.08 30.4833 20.644 29.686C22.2387 28.858 23.4653 27.6927 24.324 26.19C25.2133 24.6873 25.658 22.924 25.658 20.9C25.658 18.8453 25.2133 17.082 24.324 15.61C23.4653 14.1073 22.2387 12.9573 20.644 12.16C19.08 11.332 17.2247 10.918 15.078 10.918H8.27V30.882ZM38.3159 37V12.252H45.4919V37H38.3159ZM41.9039 8.802C40.5852 8.802 39.5119 8.41867 38.6839 7.652C37.8559 6.88533 37.4419 5.93466 37.4419 4.8C37.4419 3.66533 37.8559 2.71466 38.6839 1.948C39.5119 1.18133 40.5852 0.797997 41.9039 0.797997C43.2226 0.797997 44.2959 1.166 45.1239 1.902C45.9519 2.60733 46.3659 3.52733 46.3659 4.662C46.3659 5.858 45.9519 6.85467 45.1239 7.652C44.3266 8.41867 43.2532 8.802 41.9039 8.802ZM58.8678 37L48.4718 12.252H55.8778L64.5258 33.55H60.8458L69.8158 12.252H76.7158L66.2738 37H58.8678ZM91.2522 37.368C88.4309 37.368 85.9469 36.816 83.8002 35.712C81.6842 34.608 80.0435 33.1053 78.8782 31.204C77.7129 29.272 77.1302 27.0793 77.1302 24.626C77.1302 22.142 77.6975 19.9493 78.8322 18.048C79.9975 16.116 81.5769 14.6133 83.5702 13.54C85.5635 12.436 87.8175 11.884 90.3322 11.884C92.7549 11.884 94.9322 12.4053 96.8642 13.448C98.8269 14.46 100.376 15.932 101.51 17.864C102.645 19.7653 103.212 22.05 103.212 24.718C103.212 24.994 103.197 25.316 103.166 25.684C103.136 26.0213 103.105 26.3433 103.074 26.65H82.9722V22.464H99.3022L96.5422 23.706C96.5422 22.418 96.2815 21.2987 95.7602 20.348C95.2389 19.3973 94.5182 18.6613 93.5982 18.14C92.6782 17.588 91.6049 17.312 90.3782 17.312C89.1515 17.312 88.0629 17.588 87.1122 18.14C86.1922 18.6613 85.4715 19.4127 84.9502 20.394C84.4289 21.3447 84.1682 22.4793 84.1682 23.798V24.902C84.1682 26.2513 84.4595 27.4473 85.0422 28.49C85.6555 29.502 86.4989 30.284 87.5722 30.836C88.6762 31.3573 89.9642 31.618 91.4362 31.618C92.7549 31.618 93.9049 31.4187 94.8862 31.02C95.8982 30.6213 96.8182 30.0233 97.6462 29.226L101.464 33.366C100.33 34.654 98.9035 35.6507 97.1862 36.356C95.4689 37.0307 93.4909 37.368 91.2522 37.368Z" fill="url(#paint0_linear_151_49)"/>
<defs>
<linearGradient id="paint0_linear_151_49" x1="-4.71041" y1="3.85715" x2="36.537" y2="6.0411" gradientUnits="userSpaceOnUse">
<stop stop-color="#C0B7E8"/>
<stop offset="1" stop-color="#8176AF"/>
</linearGradient>
</defs>
</svg>
