<svg width="342" height="47" viewBox="0 0 342 47" fill="none" xmlns="http://www.w3.org/2000/svg">
<path d="M14.478 37L0.586 4.8H8.636L20.78 33.32H16.042L28.37 4.8H35.776L21.838 37H14.478ZM38.3628 37V12.252H45.5388V37H38.3628ZM41.9508 8.802C40.6321 8.802 39.5588 8.41867 38.7308 7.652C37.9028 6.88533 37.4888 5.93466 37.4888 4.8C37.4888 3.66533 37.9028 2.71466 38.7308 1.948C39.5588 1.18133 40.6321 0.797997 41.9508 0.797997C43.2694 0.797997 44.3428 1.166 45.1708 1.902C45.9988 2.60733 46.4128 3.52733 46.4128 4.662C46.4128 5.858 45.9988 6.85467 45.1708 7.652C44.3734 8.41867 43.3001 8.802 41.9508 8.802ZM52.1987 37V12.252H59.0527V19.244L58.0867 17.22C58.8227 15.472 60.0034 14.1533 61.6287 13.264C63.2541 12.344 65.2321 11.884 67.5627 11.884V18.508C67.2561 18.4773 66.9801 18.462 66.7347 18.462C66.4894 18.4313 66.2287 18.416 65.9527 18.416C63.9901 18.416 62.3954 18.9833 61.1687 20.118C59.9727 21.222 59.3747 22.9547 59.3747 25.316V37H52.1987ZM82.8031 37.368C79.8898 37.368 77.6204 36.632 75.9951 35.16C74.3698 33.6573 73.5571 31.434 73.5571 28.49V6.778H80.7331V28.398C80.7331 29.4407 81.0091 30.2533 81.5611 30.836C82.1131 31.388 82.8644 31.664 83.8151 31.664C84.9498 31.664 85.9158 31.3573 86.7131 30.744L88.6451 35.804C87.9091 36.3253 87.0198 36.724 85.9771 37C84.9651 37.2453 83.9071 37.368 82.8031 37.368ZM69.7391 18.324V12.804H86.8971V18.324H69.7391ZM103.115 37.368C101.061 37.368 99.2207 36.9693 97.5953 36.172C96.0007 35.3747 94.7587 34.1633 93.8693 32.538C92.98 30.882 92.5353 28.7813 92.5353 26.236V12.252H99.7113V25.178C99.7113 27.2327 100.141 28.7507 100.999 29.732C101.889 30.6827 103.131 31.158 104.725 31.158C105.829 31.158 106.811 30.928 107.669 30.468C108.528 29.9773 109.203 29.2413 109.693 28.26C110.184 27.248 110.429 25.9907 110.429 24.488V12.252H117.605V37H110.797V30.192L112.039 32.17C111.211 33.8873 109.985 35.1907 108.359 36.08C106.765 36.9387 105.017 37.368 103.115 37.368ZM139.433 37V32.17L138.973 31.112V22.464C138.973 20.9307 138.498 19.7347 137.547 18.876C136.627 18.0173 135.201 17.588 133.269 17.588C131.951 17.588 130.647 17.8027 129.359 18.232C128.102 18.6307 127.029 19.1827 126.139 19.888L123.563 14.874C124.913 13.9233 126.538 13.1873 128.439 12.666C130.341 12.1447 132.273 11.884 134.235 11.884C138.007 11.884 140.936 12.7733 143.021 14.552C145.107 16.3307 146.149 19.106 146.149 22.878V37H139.433ZM131.889 37.368C129.957 37.368 128.301 37.046 126.921 36.402C125.541 35.7273 124.483 34.8227 123.747 33.688C123.011 32.5533 122.643 31.2807 122.643 29.87C122.643 28.398 122.996 27.11 123.701 26.006C124.437 24.902 125.587 24.0433 127.151 23.43C128.715 22.786 130.755 22.464 133.269 22.464H139.847V26.65H134.051C132.365 26.65 131.199 26.926 130.555 27.478C129.942 28.03 129.635 28.72 129.635 29.548C129.635 30.468 129.988 31.204 130.693 31.756C131.429 32.2773 132.426 32.538 133.683 32.538C134.879 32.538 135.953 32.262 136.903 31.71C137.854 31.1273 138.544 30.284 138.973 29.18L140.077 32.492C139.556 34.0867 138.605 35.298 137.225 36.126C135.845 36.954 134.067 37.368 131.889 37.368ZM152.644 37V2.868H159.82V37H152.644ZM180.013 37V4.8H193.951C196.834 4.8 199.318 5.27533 201.403 6.226C203.489 7.146 205.099 8.48 206.233 10.228C207.368 11.976 207.935 14.0613 207.935 16.484C207.935 18.876 207.368 20.946 206.233 22.694C205.099 24.4113 203.489 25.73 201.403 26.65C199.318 27.57 196.834 28.03 193.951 28.03H184.153L187.465 24.764V37H180.013ZM200.483 37L192.433 25.316H200.391L208.533 37H200.483ZM187.465 25.592L184.153 22.096H193.537C195.837 22.096 197.555 21.6053 198.689 20.624C199.824 19.612 200.391 18.232 200.391 16.484C200.391 14.7053 199.824 13.3253 198.689 12.344C197.555 11.3627 195.837 10.872 193.537 10.872H184.153L187.465 7.33V25.592ZM225.615 37.368C222.794 37.368 220.31 36.816 218.163 35.712C216.047 34.608 214.407 33.1053 213.241 31.204C212.076 29.272 211.493 27.0793 211.493 24.626C211.493 22.142 212.061 19.9493 213.195 18.048C214.361 16.116 215.94 14.6133 217.933 13.54C219.927 12.436 222.181 11.884 224.695 11.884C227.118 11.884 229.295 12.4053 231.227 13.448C233.19 14.46 234.739 15.932 235.873 17.864C237.008 19.7653 237.575 22.05 237.575 24.718C237.575 24.994 237.56 25.316 237.529 25.684C237.499 26.0213 237.468 26.3433 237.437 26.65H217.335V22.464H233.665L230.905 23.706C230.905 22.418 230.645 21.2987 230.123 20.348C229.602 19.3973 228.881 18.6613 227.961 18.14C227.041 17.588 225.968 17.312 224.741 17.312C223.515 17.312 222.426 17.588 221.475 18.14C220.555 18.6613 219.835 19.4127 219.313 20.394C218.792 21.3447 218.531 22.4793 218.531 23.798V24.902C218.531 26.2513 218.823 27.4473 219.405 28.49C220.019 29.502 220.862 30.284 221.935 30.836C223.039 31.3573 224.327 31.618 225.799 31.618C227.118 31.618 228.268 31.4187 229.249 31.02C230.261 30.6213 231.181 30.0233 232.009 29.226L235.827 33.366C234.693 34.654 233.267 35.6507 231.549 36.356C229.832 37.0307 227.854 37.368 225.615 37.368ZM256.859 37V32.17L256.399 31.112V22.464C256.399 20.9307 255.924 19.7347 254.973 18.876C254.053 18.0173 252.627 17.588 250.695 17.588C249.377 17.588 248.073 17.8027 246.785 18.232C245.528 18.6307 244.455 19.1827 243.565 19.888L240.989 14.874C242.339 13.9233 243.964 13.1873 245.865 12.666C247.767 12.1447 249.699 11.884 251.661 11.884C255.433 11.884 258.362 12.7733 260.447 14.552C262.533 16.3307 263.575 19.106 263.575 22.878V37H256.859ZM249.315 37.368C247.383 37.368 245.727 37.046 244.347 36.402C242.967 35.7273 241.909 34.8227 241.173 33.688C240.437 32.5533 240.069 31.2807 240.069 29.87C240.069 28.398 240.422 27.11 241.127 26.006C241.863 24.902 243.013 24.0433 244.577 23.43C246.141 22.786 248.181 22.464 250.695 22.464H257.273V26.65H251.477C249.791 26.65 248.625 26.926 247.981 27.478C247.368 28.03 247.061 28.72 247.061 29.548C247.061 30.468 247.414 31.204 248.119 31.756C248.855 32.2773 249.852 32.538 251.109 32.538C252.305 32.538 253.379 32.262 254.329 31.71C255.28 31.1273 255.97 30.284 256.399 29.18L257.503 32.492C256.982 34.0867 256.031 35.298 254.651 36.126C253.271 36.954 251.493 37.368 249.315 37.368ZM270.07 37V2.868H277.246V37H270.07ZM283.906 37V12.252H291.082V37H283.906ZM287.494 8.802C286.175 8.802 285.102 8.41867 284.274 7.652C283.446 6.88533 283.032 5.93466 283.032 4.8C283.032 3.66533 283.446 2.71466 284.274 1.948C285.102 1.18133 286.175 0.797997 287.494 0.797997C288.812 0.797997 289.886 1.166 290.714 1.902C291.542 2.60733 291.956 3.52733 291.956 4.662C291.956 5.858 291.542 6.85467 290.714 7.652C289.916 8.41867 288.843 8.802 287.494 8.802ZM307.862 37.368C304.948 37.368 302.679 36.632 301.054 35.16C299.428 33.6573 298.616 31.434 298.616 28.49V6.778H305.792V28.398C305.792 29.4407 306.068 30.2533 306.62 30.836C307.172 31.388 307.923 31.664 308.874 31.664C310.008 31.664 310.974 31.3573 311.772 30.744L313.704 35.804C312.968 36.3253 312.078 36.724 311.036 37C310.024 37.2453 308.966 37.368 307.862 37.368ZM294.798 18.324V12.804H311.956V18.324H294.798ZM320.411 46.292C319.123 46.292 317.85 46.0927 316.593 45.694C315.335 45.2953 314.308 44.7433 313.511 44.038L316.133 38.932C316.685 39.4227 317.313 39.806 318.019 40.082C318.755 40.358 319.475 40.496 320.181 40.496C321.193 40.496 321.99 40.2507 322.573 39.76C323.186 39.3 323.738 38.518 324.229 37.414L325.517 34.378L326.069 33.596L334.947 12.252H341.847L330.669 38.518C329.871 40.5113 328.951 42.0753 327.909 43.21C326.897 44.3447 325.762 45.142 324.505 45.602C323.278 46.062 321.913 46.292 320.411 46.292ZM324.643 37.966L313.603 12.252H321.009L329.565 32.952L324.643 37.966Z" fill="url(#paint0_linear_151_48)"/>
<defs>
<linearGradient id="paint0_linear_151_48" x1="354.895" y1="-7.00001" x2="60.2433" y2="24.2845" gradientUnits="userSpaceOnUse">
<stop stop-color="#C0B7E8"/>
<stop offset="1" stop-color="#8176AF"/>
</linearGradient>
</defs>
</svg>
